#!OML:ASF E:\VariousWalksJay\Project 1\Capture day 1\Session 1\Actor2.ASF
:FULLY-SPECIFIED
:DEGREES
575
root 11.137 16.8074 -2.67687 16.0836 -36.7888 1.61074
lowerback 7.97229 -3.63992 3.69393
upperback 12.4891 -4.85308 -3.2877
thorax 8.2196 -2.02795 -5.51833
lowerneck 2.99126 1.14271 3.53456
upperneck -0.441631 1.64604 0.513731
head -0.602321 0.804779 -0.447195
rclavicle -1.08139e-013 9.54166e-015
rhumerus -36.3852 14.149 -92.043
rradius 65.7604
rwrist 5.74085
rhand -27.339 -9.29715
rfingers 7.12502
rthumb -0.747503 -39.2756
lclavicle -1.08139e-013 9.54166e-015
lhumerus 1.1114 -27.5393 75.9139
lradius 69.448
lwrist 54.3588
lhand -39.0953 8.23669
lfingers 7.12502
lthumb -12.0955 37.8671
rfemur -54.2793 -0.294352 25.159
rtibia 40.9034
rfoot -4.87591 -13.2652
rtoes 8.37736
lfemur -5.17022 5.29485 -26.5843
ltibia 31.2199
lfoot -21.3364 7.41678
ltoes -15.1116
576
root 11.0578 16.8251 -2.5928 16.2554 -36.8324 1.60201
lowerback 7.89947 -3.63265 3.71283
upperback 12.4236 -4.84429 -3.24606
thorax 8.18948 -2.02514 -5.48543
lowerneck 2.94322 1.16232 3.53565
upperneck -0.328397 1.66758 0.461665
head -0.558695 0.817738 -0.46235
rclavicle 3.73715e-014 -5.88403e-014
rhumerus -36.3124 14.1017 -91.9825
rradius 65.7305
rwrist 5.71825
rhand -27.332 -9.29655
rfingers 7.12502
rthumb -0.74078 -39.275
lclavicle 3.73715e-014 -5.88403e-014
lhumerus 0.679322 -27.5255 76.2792
lradius 69.6998
lwrist 54.4217
lhand -39.165 8.03682
lfingers 7.12502
lthumb -12.1628 37.6632
rfemur -54.1393 -0.140323 25.1427
rtibia 41.1426
rfoot -5.34526 -13.321
rtoes 8.40718
lfemur -4.80175 5.36426 -26.4654
ltibia 30.7695
lfoot -20.5977 7.21525
ltoes -15.2833
577
root 10.9801 16.842 -2.51142 16.4312 -36.8686 1.5911
lowerback 7.83268 -3.6227 3.73176
upperback 12.3607 -4.83198 -3.20203
thorax 8.15955 -2.02068 -5.44984
lowerneck 2.8947 1.17874 3.52603
upperneck -0.230812 1.68494 0.410748
head -0.520011 0.828368 -0.475422
rclavicle 1.03368e-014 1.27222e-014
rhumerus -36.2573 14.0483 -91.9257
rradius 65.7363
rwrist 5.67731
rhand -27.3287 -9.28475
rfingers 7.12502
rthumb -0.737539 -39.2632
lclavicle 1.03368e-014 1.27222e-014
lhumerus 0.271524 -27.5197 76.6355
lradius 69.9589
lwrist 54.4462
lhand -39.2303 7.86161
lfingers 7.12502
lthumb -12.2257 37.4843
rfemur -53.998 0.0228254 25.1242
rtibia 41.3565
rfoot -5.81303 -13.3934
rtoes 8.4057
lfemur -4.48796 5.43172 -26.332
ltibia 30.3992
lfoot -19.8522 6.96214
ltoes -15.48
578
root 10.9042 16.858 -2.43279 16.6156 -36.9024 1.56818
lowerback 7.77586 -3.60871 3.76071
upperback 12.3017 -4.81405 -3.15666
thorax 8.12865 -2.01268 -5.41812
lowerneck 2.84558 1.18953 3.51148
upperneck -0.154002 1.69517 0.361917
head -0.487825 0.835115 -0.487095
rclavicle 1.59028e-015 6.52014e-014
rhumerus -36.2172 13.995 -91.8753
rradius 65.7774
rwrist 5.6273
rhand -27.3323 -9.25049
rfingers 7.12502
rthumb -0.741021 -39.2289
lclavicle 1.59028e-015 6.52014e-014
lhumerus -0.108455 -27.5244 76.9779
lradius 70.2245
lwrist 54.4181
lhand -39.2788 7.73004
lfingers 7.12502
lthumb -12.2725 37.3499
rfemur -53.8587 0.19623 25.1124
rtibia 41.5519
rfoot -6.27362 -13.4745
rtoes 8.40383
lfemur -4.23684 5.4964 -26.179
ltibia 30.1278
lfoot -19.1025 6.66279
ltoes -15.7093
579
root 10.8304 16.8731 -2.35702 16.8033 -36.9306 1.53735
lowerback 7.73292 -3.58863 3.80729
upperback 12.2496 -4.78732 -3.11693
thorax 8.0973 -1.99855 -5.40197
lowerneck 2.79284 1.19125 3.50394
upperneck -0.101662 1.69398 0.320282
head -0.462779 0.835754 -0.497743
rclavicle 5.88403e-014 -4.29375e-014
rhumerus -36.182 13.9222 -91.8365
rradius 65.8418
rwrist 5.58535
rhand -27.3417 -9.20559
rfingers 7.12502
rthumb -0.750075 -39.184
lclavicle 5.88403e-014 -4.29375e-014
lhumerus -0.448957 -27.5651 77.2895
lradius 70.4953
lwrist 54.3502
lhand -39.3137 7.63439
lfingers 7.12502
lthumb -12.3061 37.2523
rfemur -53.7253 0.373032 25.1056
rtibia 41.7367
rfoot -6.71755 -13.5614
rtoes 8.38217
lfemur -4.05527 5.54813 -26.0113
ltibia 29.9735
lfoot -18.3492 6.32229
ltoes -15.9437
580
root 10.759 16.8872 -2.28407 16.9844 -36.9527 1.50324
lowerback 7.71158 -3.56718 3.86507
upperback 12.2072 -4.75812 -3.08107
thorax 8.06414 -1.98216 -5.39534
lowerneck 2.73699 1.1885 3.49218
upperneck -0.0765572 1.68719 0.284941
head -0.445759 0.833196 -0.505871
rclavicle -1.04958e-013 -3.57812e-014
rhumerus -36.1473 13.8512 -91.8065
rradius 65.925
rwrist 5.55733
rhand -27.3598 -9.14128
rfingers 7.12502
rthumb -0.767561 -39.1196
lclavicle -1.04958e-013 -3.57812e-014
lhumerus -0.747431 -27.6311 77.5704
lradius 70.7677
lwrist 54.2528
lhand -39.3438 7.53877
lfingers 7.12502
lthumb -12.3352 37.1549
rfemur -53.5947 0.542133 25.1043
rtibia 41.9184
rfoot -7.14516 -13.6447
rtoes 8.3401
lfemur -3.94472 5.58523 -25.834
ltibia 29.9542
lfoot -17.6005 5.94363
ltoes -16.1394
581
root 10.6901 16.9002 -2.21396 17.1487 -36.9663 1.46835
lowerback 7.72169 -3.5537 3.92819
upperback 12.1747 -4.73874 -3.04631
thorax 8.02273 -1.97053 -5.39091
lowerneck 2.68396 1.18827 3.45876
upperneck -0.0771382 1.68377 0.258044
head -0.43724 0.831956 -0.508059
rclavicle 6.12257e-014 -3.49861e-014
rhumerus -36.1113 13.8154 -91.7837
rradius 66.0203
rwrist 5.54082
rhand -27.3809 -9.07534
rfingers 7.12502
rthumb -0.788004 -39.0536
lclavicle 6.12257e-014 -3.49861e-014
lhumerus -1.01125 -27.7016 77.8204
lradius 71.0407
lwrist 54.1474
lhand -39.3594 7.4708
lfingers 7.12502
lthumb -12.3502 37.086
rfemur -53.4606 0.700793 25.1062
rtibia 42.1028
rfoot -7.56454 -13.7277
rtoes 8.29287
lfemur -3.90536 5.6052 -25.6498
ltibia 30.0876
lfoot -16.8634 5.53262
ltoes -16.2645
582
root 10.6239 16.9121 -2.14674 17.2822 -36.9733 1.44784
lowerback 7.76893 -3.54132 3.99359
upperback 12.1541 -4.71955 -3.02146
thorax 7.97288 -1.95871 -5.3964
lowerneck 2.63337 1.18384 3.42442
upperneck -0.101442 1.67531 0.238331
head -0.436542 0.827846 -0.508031
rclavicle 8.74653e-015 5.96354e-014
rhumerus -36.072 13.7872 -91.7711
rradius 66.1235
rwrist 5.53692
rhand -27.4065 -9.01639
rfingers 7.12502
rthumb -0.81267 -38.9946
lclavicle 8.74653e-015 5.96354e-014
lhumerus -1.22427 -27.8059 78.0175
lradius 71.3148
lwrist 54.0604
lhand -39.3692 7.40887
lfingers 7.12502
lthumb -12.3597 37.0235
rfemur -53.3209 0.840874 25.1008
rtibia 42.2948
rfoot -7.98115 -13.8034
rtoes 8.24962
lfemur -3.94173 5.61061 -25.4736
ltibia 30.3908
lfoot -16.1461 5.09743
ltoes -16.301
583
root 10.5603 16.9227 -2.08226 17.3799 -36.9712 1.44405
lowerback 7.85099 -3.51595 4.07952
upperback 12.1529 -4.68127 -3.01845
thorax 7.92488 -1.93455 -5.43611
lowerneck 2.57223 1.15984 3.43693
upperneck -0.145029 1.6421 0.220972
head -0.44013 0.811078 -0.514865
rclavicle 1.63799e-013 -5.1684e-014
rhumerus -36.02 13.7033 -91.7751
rradius 66.2307
rwrist 5.54863
rhand -27.4334 -8.96018
rfingers 7.12502
rthumb -0.838709 -38.9383
lclavicle 1.63799e-013 -5.1684e-014
lhumerus -1.35678 -27.9901 78.144
lradius 71.5861
lwrist 54.0012
lhand -39.3672 7.38413
lfingers 7.12502
lthumb -12.3577 36.9989
rfemur -53.1715 0.957511 25.0877
rtibia 42.4967
rfoot -8.40464 -13.8725
rtoes 8.22113
lfemur -4.06124 5.60071 -25.3072
ltibia 30.8838
lfoot -15.4649 4.64276
ltoes -16.2234
584
root 10.4994 16.9319 -2.02065 17.4379 -36.9579 1.45988
lowerback 7.97145 -3.48638 4.17109
upperback 12.1683 -4.63593 -3.02871
thorax 7.87378 -1.9059 -5.49183
lowerneck 2.51138 1.12308 3.47708
upperneck -0.20701 1.59295 0.200834
head -0.449506 0.786095 -0.52714
rclavicle -1.27222e-014 1.43125e-014
rhumerus -35.9574 13.5988 -91.7875
rradius 66.3387
rwrist 5.56779
rhand -27.4593 -8.91163
rfingers 7.12502
rthumb -0.863732 -38.8896
lclavicle -1.27222e-014 1.43125e-014
lhumerus -1.42196 -28.2186 78.2176
lradius 71.8504
lwrist 53.9712
lhand -39.36 7.37884
lfingers 7.12502
lthumb -12.3508 36.994
rfemur -53.0108 1.04621 25.0666
rtibia 42.7095
rfoot -8.84172 -13.933
rtoes 8.21526
lfemur -4.27312 5.58025 -25.1527
ltibia 31.5892
lfoot -14.8426 4.18041
ltoes -16.0236
585
root 10.4413 16.9394 -1.96196 17.4651 -36.9408 1.48807
lowerback 8.12464 -3.44108 4.28011
upperback 12.2015 -4.56804 -3.05556
thorax 7.82528 -1.86366 -5.5749
lowerneck 2.44349 1.0649 3.56509
upperneck -0.281019 1.5164 0.176657
head -0.461623 0.747204 -0.548407
rclavicle -4.53229e-014 2.38542e-015
rhumerus -35.8796 13.4418 -91.8076
rradius 66.4459
rwrist 5.59139
rhand -27.4875 -8.8764
rfingers 7.12502
rthumb -0.890926 -38.8543
lclavicle -4.53229e-014 2.38542e-015
lhumerus -1.40518 -28.5152 78.2312
lradius 72.1077
lwrist 53.9714
lhand -39.3511 7.40021
lfingers 7.12502
lthumb -12.3422 37.0159
rfemur -52.8431 1.10889 25.045
rtibia 42.9325
rfoot -9.29523 -13.9747
rtoes 8.25056
lfemur -4.59503 5.55865 -25.0083
ltibia 32.5325
lfoot -14.312 3.7258
ltoes -15.7542
586
root 10.386 16.945 -1.90641 17.4737 -36.9124 1.51792
lowerback 8.30731 -3.38783 4.40342
upperback 12.2491 -4.48833 -3.08752
thorax 7.7775 -1.81402 -5.67117
lowerneck 2.37085 0.994293 3.68625
upperneck -0.362936 1.4239 0.140584
head -0.475541 0.700226 -0.578783
rclavicle -9.54166e-014 5.64548e-014
rhumerus -35.7875 13.2617 -91.8262
rradius 66.5528
rwrist 5.60755
rhand -27.5128 -8.84826
rfingers 7.12502
rthumb -0.91535 -38.826
lclavicle -9.54166e-014 5.64548e-014
lhumerus -1.31513 -28.8505 78.1969
lradius 72.3564
lwrist 53.995
lhand -39.3476 7.43447
lfingers 7.12502
lthumb -12.3388 37.0504
rfemur -52.673 1.14084 25.0345
rtibia 43.1638
rfoot -9.76528 -13.9921
rtoes 8.32503
lfemur -5.04779 5.54273 -24.8616
ltibia 33.7417
lfoot -13.8987 3.2769
ltoes -15.5118
